<svg xmlns:xlink="http://www.w3.org/1999/xlink" xmlns="http://www.w3.org/2000/svg" width="24" height="24" viewBox="0 0 24 24" fill="none">
<g id="Icon">
<path id="Vector" d="M12.2041 10.1445V14.0962H17.6956C17.4545 15.3671 16.7308 16.4431 15.6455 17.1667L18.9571 19.7362C20.8866 17.9552 21.9997 15.3393 21.9997 12.2318C21.9997 11.5083 21.9348 10.8125 21.8142 10.1446L12.2041 10.1445Z" fill="#4285F4"/>
<path id="Vector_2" d="M6.48246 13.9424L5.73557 14.5141L3.0918 16.5734C4.77079 19.9035 8.21201 22.2041 12.2008 22.2041C14.9557 22.2041 17.2655 21.295 18.9538 19.7366L15.6422 17.1671C14.7331 17.7793 13.5736 18.1504 12.2008 18.1504C9.54777 18.1504 7.29372 16.3601 6.48663 13.9483L6.48246 13.9424Z" fill="#34A853"/>
<path id="Vector_3" d="M3.09451 7.42773C2.39884 8.80056 2 10.3497 2 12.0009C2 13.652 2.39884 15.2012 3.09451 16.574C3.09451 16.5832 6.48967 13.9395 6.48967 13.9395C6.2856 13.3273 6.16497 12.678 6.16497 12.0008C6.16497 11.3235 6.2856 10.6742 6.48967 10.062L3.09451 7.42773Z" fill="#FBBC05"/>
<path id="Vector_4" d="M12.201 5.85889C13.7037 5.85889 15.0395 6.37834 16.1063 7.38019L19.0282 4.45821C17.2565 2.80707 14.956 1.7959 12.201 1.7959C8.21222 1.7959 4.77079 4.08712 3.0918 7.42658L6.48685 10.061C7.29383 7.64919 9.54798 5.85889 12.201 5.85889Z" fill="#EA4335"/>
</g>
</svg>