<svg xmlns:xlink="http://www.w3.org/1999/xlink" xmlns="http://www.w3.org/2000/svg" width="48" height="48" viewBox="0 0 16 16" fill="none">
<path d="M14.6673 8.00001C14.6673 4.32668 11.674 1.33334 8.00065 1.33334C4.32732 1.33334 1.33398 4.32668 1.33398 8.00001C1.33398 9.93334 2.16732 11.6733 3.48732 12.8933C3.48732 12.9 3.48732 12.9 3.48065 12.9067C3.54732 12.9733 3.62732 13.0267 3.69398 13.0867C3.73398 13.12 3.76732 13.1533 3.80732 13.18C3.92732 13.28 4.06065 13.3733 4.18732 13.4667C4.23398 13.5 4.27398 13.5267 4.32065 13.56C4.44732 13.6467 4.58065 13.7267 4.72065 13.8C4.76732 13.8267 4.82065 13.86 4.86732 13.8867C5.00065 13.96 5.14065 14.0267 5.28732 14.0867C5.34065 14.1133 5.39398 14.14 5.44732 14.16C5.59398 14.22 5.74065 14.2733 5.88732 14.32C5.94065 14.34 5.99398 14.36 6.04732 14.3733C6.20732 14.42 6.36732 14.46 6.52732 14.5C6.57398 14.5133 6.62065 14.5267 6.67398 14.5333C6.86065 14.5733 7.04732 14.6 7.24065 14.62C7.26732 14.62 7.29398 14.6267 7.32065 14.6333C7.54732 14.6533 7.77398 14.6667 8.00065 14.6667C8.22732 14.6667 8.45398 14.6533 8.67398 14.6333C8.70065 14.6333 8.72732 14.6267 8.75398 14.62C8.94732 14.6 9.13398 14.5733 9.32065 14.5333C9.36732 14.5267 9.41398 14.5067 9.46732 14.5C9.62732 14.46 9.79398 14.4267 9.94732 14.3733C10.0007 14.3533 10.054 14.3333 10.1073 14.32C10.254 14.2667 10.4073 14.22 10.5473 14.16C10.6006 14.14 10.654 14.1133 10.7073 14.0867C10.8473 14.0267 10.9873 13.96 11.1273 13.8867C11.1807 13.86 11.2273 13.8267 11.274 13.8C11.4073 13.72 11.5407 13.6467 11.674 13.56C11.7207 13.5333 11.7606 13.5 11.8073 13.4667C11.9406 13.3733 12.0673 13.28 12.1873 13.18C12.2273 13.1467 12.2607 13.1133 12.3007 13.0867C12.374 13.0267 12.4473 12.9667 12.514 12.9067C12.514 12.9 12.514 12.9 12.5073 12.8933C13.834 11.6733 14.6673 9.93334 14.6673 8.00001ZM11.294 11.3133C9.48732 10.1 6.52732 10.1 4.70732 11.3133C4.41398 11.5067 4.17398 11.7333 3.97398 11.98C2.96065 10.9533 2.33398 9.54668 2.33398 8.00001C2.33398 4.87334 4.87398 2.33334 8.00065 2.33334C11.1273 2.33334 13.6673 4.87334 13.6673 8.00001C13.6673 9.54668 13.0407 10.9533 12.0273 11.98C11.834 11.7333 11.5873 11.5067 11.294 11.3133Z" fill="#D53B21"/>
<path d="M8 4.62C6.62 4.62 5.5 5.74 5.5 7.12C5.5 8.47333 6.56 9.57333 7.96667 9.61333C7.98667 9.61333 8.01333 9.61333 8.02667 9.61333C8.04 9.61333 8.06 9.61333 8.07333 9.61333C8.08 9.61333 8.08667 9.61333 8.08667 9.61333C9.43333 9.56666 10.4933 8.47333 10.5 7.12C10.5 5.74 9.38 4.62 8 4.62Z" fill="#D53B21"/>
</svg>